<svg xmlns="http://www.w3.org/2000/svg" viewBox="320 60 380 380">
<rect x="320" y="60" width="380" height="380" rx="40" fill="#1B3A57"/>
<g transform="translate(0,1536) scale(0.1,-0.1)" fill="white" stroke="none">
<path d="M5106 14168 c-3 -13 -6 -107 -6 -209 l0 -187 -29 -12 c-68 -28 -99
-106 -67 -168 24 -47 53 -62 118 -62 49 0 62 4 89 28 62 56 44 161 -35 199
-44 20 -46 32 -46 254 0 163 -8 215 -24 157z"/>
<path d="M5032 13495 c-35 -15 -67 -72 -51 -91 14 -17 -57 -74 -389 -308 -166
-117 -181 -136 -145 -184 11 -15 39 -36 62 -47 l41 -20 0 -247 0 -248 -24 0
c-19 0 -25 7 -30 35 -4 19 -12 37 -18 41 -14 9 -38 -24 -38 -53 0 -23 -1 -23
-126 -23 -118 0 -127 1 -145 23 -19 22 -19 22 -34 3 -12 -16 -15 -61 -15 -253
0 -146 -4 -233 -10 -233 -15 0 -23 -46 -11 -68 6 -12 21 -24 33 -28 12 -3 28
-13 36 -20 7 -8 31 -14 53 -14 l39 0 0 -269 c0 -236 -2 -270 -16 -275 -20 -8
-222 -8 -251 0 -13 4 -23 13 -23 20 0 20 -27 29 -45 14 -13 -10 -15 -56 -15
-283 0 -177 -4 -281 -11 -302 -9 -25 -9 -38 2 -60 12 -23 36 -37 134 -77 66
-26 164 -62 218 -80 l97 -32 0 -39 c0 -30 4 -40 20 -44 14 -4 20 -14 20 -33 0
-15 -18 -207 -40 -426 -22 -219 -47 -471 -55 -559 -9 -88 -31 -316 -50 -506
-19 -190 -35 -352 -35 -360 0 -8 -10 -19 -22 -24 -21 -9 -23 -16 -20 -68 2
-32 -2 -72 -8 -88 -10 -22 -10 -36 -2 -53 8 -18 3 -90 -19 -292 -16 -148 -45
-429 -64 -624 -20 -195 -51 -502 -70 -681 -19 -179 -35 -336 -35 -348 0 -12
-6 -21 -15 -21 -20 0 -36 -32 -24 -51 14 -22 11 -83 -7 -136 -15 -43 -15 -49
0 -73 8 -15 14 -29 12 -31 -2 -2 -16 -116 -30 -254 -63 -586 -79 -734 -106
-980 -16 -143 -34 -315 -41 -382 -9 -92 -15 -123 -26 -123 -21 0 -33 -44 -22
-83 7 -26 6 -46 -6 -79 -18 -51 -19 -80 -4 -95 8 -8 5 -57 -10 -174 -21 -168
-61 -516 -131 -1159 -48 -436 -46 -427 -72 -433 -18 -5 -19 -12 -15 -74 5 -74
-7 -110 -45 -137 -12 -9 -29 -35 -38 -58 l-15 -43 -80 -5 -80 -5 -3 -103 -3
-102 -93 0 c-70 0 -97 -4 -106 -15 -6 -8 -9 -19 -5 -25 9 -15 4207 -14 4222 1
6 6 9 18 6 25 -4 11 -29 14 -104 14 l-99 0 0 105 0 105 -80 0 -80 0 -18 38
c-9 20 -32 55 -50 77 l-33 40 6 81 c7 76 6 82 -13 88 -25 8 -27 17 -52 227
-11 96 -29 251 -40 344 -11 94 -29 249 -40 345 -11 96 -27 227 -35 290 -8 63
-17 142 -20 175 -8 88 -15 148 -30 259 -12 91 -12 101 3 112 15 11 15 17 -2
82 -13 50 -15 75 -8 89 13 24 4 71 -18 86 -13 9 -21 45 -34 162 -9 83 -28 245
-41 360 -14 116 -29 253 -35 305 -25 230 -101 897 -104 920 -3 14 3 33 11 42
15 16 15 23 0 69 -20 61 -21 72 -5 117 12 32 11 36 -13 56 -25 20 -27 30 -43
191 -9 94 -30 289 -46 435 -16 146 -36 333 -44 415 -9 83 -34 317 -55 520 -30
273 -39 400 -36 485 3 103 1 117 -16 130 -20 16 -17 -1 -83 630 -14 135 -40
385 -56 555 -17 171 -37 373 -45 450 -30 283 -29 264 -11 271 13 5 16 16 14
42 -2 23 2 37 12 42 8 5 87 34 175 65 212 76 271 105 267 132 -2 12 2 24 8 28
13 8 13 45 0 45 -6 0 -11 107 -12 287 -3 264 -4 288 -20 291 -11 2 -22 -6 -29
-22 -12 -26 -13 -26 -138 -26 -69 0 -136 3 -148 6 l-23 6 0 269 0 269 33 0
c41 0 131 57 135 86 2 11 -4 27 -13 34 -13 11 -15 48 -15 249 0 238 -3 261
-36 261 -7 0 -16 -9 -19 -20 -6 -19 -15 -20 -135 -20 l-129 0 -3 38 c-2 29 -7
37 -23 37 -16 0 -21 -8 -23 -37 -3 -33 -7 -38 -28 -38 l-24 0 0 253 0 253 45
22 c87 42 86 99 -2 157 -72 47 -432 315 -456 339 -11 11 -15 26 -12 38 9 27
-20 67 -60 84 -44 18 -130 17 -173 -1z m126 -52 c-21 -2 -55 -2 -75 0 -21 2
-4 4 37 4 41 0 58 -2 38 -4z m0 -110 c26 -38 142 -250 142 -260 0 -4 -86 -8
-190 -8 -156 0 -189 2 -185 14 3 7 39 73 81 147 69 123 78 134 104 134 20 0
34 -8 48 -27z m88 6 c10 -12 89 -74 174 -139 85 -65 171 -132 190 -150 l35
-31 -30 7 c-16 3 -79 14 -138 23 l-108 16 -28 50 c-15 28 -51 90 -79 140 -29
49 -52 93 -52 97 0 14 17 8 36 -13z m-259 -46 c-13 -21 -47 -82 -76 -135 l-52
-97 -47 -7 c-26 -3 -83 -12 -127 -20 -43 -7 -80 -12 -82 -10 -4 4 126 108 222
176 50 35 109 81 133 103 24 21 46 37 48 34 3 -3 -5 -22 -19 -44z m523 -338
c63 -10 118 -23 122 -29 15 -23 7 -28 -34 -22 -205 31 -672 36 -863 11 -146
-20 -148 -20 -136 4 10 18 32 23 266 51 117 14 515 5 645 -15z m-210 -280 l0
-215 -185 0 -185 0 0 215 0 215 185 0 185 0 0 -215z m-417 -2 l-2 -208 -136
-3 -135 -3 2 198 3 198 100 11 c55 6 116 12 135 13 l35 1 -2 -207z m587 197
c52 -6 110 -13 128 -16 l32 -6 0 -194 0 -194 -145 0 -145 0 0 210 c0 193 1
210 18 210 9 0 60 -5 112 -10z m-370 -485 l0 -35 -245 0 -245 0 0 35 0 35 245
0 245 0 0 -35z m530 0 l0 -35 -240 0 -240 0 0 35 0 35 240 0 240 0 0 -35z
m-1082 -102 c-2 -31 -7 -39 -25 -41 -21 -3 -23 1 -23 37 0 37 2 41 26 41 23 0
25 -3 22 -37z m552 0 l0 -33 -229 0 c-126 0 -236 -3 -245 -6 -13 -5 -16 1 -16
29 l0 36 73 3 c39 2 150 3 245 3 l172 0 0 -32z m530 1 c0 -22 -5 -33 -17 -35
-10 -2 -118 -3 -240 -1 l-223 3 0 32 0 32 240 0 240 0 0 -31z m108 -6 c3 -35
1 -38 -22 -38 -24 0 -26 4 -26 41 0 36 2 40 23 37 18 -2 23 -10 25 -40z
m-1298 -8 l0 -40 -130 0 -130 0 0 40 0 40 130 0 130 0 0 -40z m1610 0 l0 -40
-130 0 -130 0 0 40 0 40 130 0 130 0 0 -40z m-1500 -180 l0 -120 -25 0 -25 0
0 120 0 120 25 0 25 0 0 -120z m550 5 l0 -115 -245 0 -245 0 0 115 0 115 245
0 245 0 0 -115z m530 0 l0 -115 -240 0 -240 0 0 115 0 115 240 0 240 0 0 -115z
m110 -10 c0 -63 -4 -115 -9 -115 -37 0 -41 11 -41 121 l0 109 25 0 25 0 0
-115z m-1302 -7 l-3 -113 -127 -3 -128 -4 0 116 0 116 130 0 131 0 -3 -112z
m1612 -3 l0 -115 -130 0 -130 0 0 115 0 115 130 0 130 0 0 -115z m-950 -155
c0 -19 -7 -20 -229 -20 -126 0 -236 -3 -244 -6 -14 -5 -31 29 -19 40 3 3 115
6 249 6 236 0 243 -1 243 -20z m530 0 c0 -19 -7 -20 -240 -20 -233 0 -240 1
-240 20 0 19 7 20 240 20 233 0 240 -1 240 -20z m108 -8 c3 -20 0 -23 -20 -20
-15 2 -24 11 -26 26 -3 20 0 23 20 20 15 -2 24 -11 26 -26z m-1188 -2 c0 -15
-7 -20 -25 -20 -18 0 -25 5 -25 20 0 15 7 20 25 20 18 0 25 -5 25 -20z m-110
-5 c0 -13 -21 -15 -130 -15 -109 0 -130 2 -130 15 0 13 21 15 130 15 109 0
130 -2 130 -15z m1610 0 c0 -13 -21 -15 -130 -15 -109 0 -130 2 -130 15 0 13
21 15 130 15 109 0 130 -2 130 -15z m-238 -77 c47 -7 89 -15 91 -18 3 -3 -350
-5 -784 -5 -434 0 -789 3 -789 8 0 4 8 7 18 7 25 1 119 11 182 20 92 14 1181
4 1282 -12z m-1552 -15 c0 -5 -16 -9 -35 -10 -19 -1 -35 3 -35 8 0 5 16 9 35
9 19 0 35 -3 35 -7z m1790 -5 c0 -5 -18 -8 -40 -8 -22 0 -40 4 -40 9 0 5 18 8
40 7 22 0 40 -4 40 -8z m-1540 -307 l0 -259 -22 -6 c-46 -12 -58 -7 -58 23 0
16 -7 34 -15 41 -21 18 -45 -4 -45 -41 0 -24 -4 -29 -23 -29 l-23 0 1 253 c1
138 3 258 3 265 2 8 27 12 92 12 l90 0 0 -259z m380 -1 l0 -260 -170 0 -170 0
0 260 0 260 170 0 170 0 0 -260z m410 0 l0 -260 -74 0 -75 0 -3 33 c-2 24 -8
32 -23 32 -15 0 -21 -8 -23 -32 l-3 -33 -85 0 -84 0 0 260 0 260 185 0 185 0
0 -260z m380 0 l0 -260 -170 0 -170 0 0 260 0 260 170 0 170 0 0 -260z m230
-5 c0 -258 -1 -265 -20 -265 -14 0 -20 7 -20 23 0 13 -6 32 -14 42 -12 16 -16
17 -30 6 -9 -7 -16 -27 -16 -43 0 -23 -4 -29 -16 -24 -9 3 -28 6 -44 6 l-28 0
1 260 2 260 93 0 92 0 0 -265z m-1540 -331 c0 -19 -4 -34 -9 -34 -5 0 -16 -3
-25 -6 -13 -5 -16 1 -16 28 0 40 2 43 30 45 16 1 20 -4 20 -33z m727 -1 l-2
-38 -332 -3 -333 -2 0 40 0 40 334 0 334 0 -1 -37z m713 -3 l0 -40 -330 0
-330 0 0 40 0 40 330 0 330 0 0 -40z m84 34 c11 -4 16 -19 16 -45 0 -32 -3
-39 -20 -39 -17 0 -20 7 -20 45 0 48 0 48 24 39z m249 -24 l127 0 0 -32 0 -33
-137 3 c-76 2 -144 5 -150 7 -7 2 -13 19 -13 36 0 28 3 31 23 25 12 -3 79 -6
150 -6z m-1883 -30 l0 -30 -145 0 -145 0 0 30 0 30 145 0 145 0 0 -30z m-240
-216 l0 -134 -25 0 -25 0 0 134 c0 120 2 135 18 139 9 2 20 2 25 0 4 -2 7 -65
7 -139z m78 3 l3 -137 -31 0 -30 0 0 134 c0 137 3 146 40 141 12 -2 15 -26 18
-138z m82 3 l0 -140 -30 0 -30 0 0 134 c0 146 -4 134 53 145 4 0 7 -62 7 -139z
m80 -1 l0 -139 -30 0 -30 0 0 133 c0 74 2 136 5 139 3 3 17 6 30 6 l25 0 0
-139z m110 1 l0 -140 -25 0 -25 0 0 140 0 140 25 0 25 0 0 -140z m110 0 l0
-140 -25 0 -25 0 0 140 0 140 25 0 25 0 0 -140z m90 0 l0 -140 -30 0 -30 0 0
140 0 140 30 0 30 0 0 -140z m90 0 l0 -140 -30 0 -30 0 0 140 0 140 30 0 30 0
0 -140z m90 0 l0 -140 -30 0 c-16 0 -30 3 -30 8 -1 16 -1 257 -1 265 1 4 15 7
31 7 l30 0 0 -140z m85 0 l0 -135 -32 -3 -33 -3 0 141 0 141 33 -3 32 -3 0
-135z m85 0 l0 -140 -30 0 -30 0 0 140 0 140 30 0 30 0 0 -140z m90 -1 l0
-140 -32 3 -33 3 -3 138 -3 137 36 0 35 0 0 -141z m90 1 l0 -140 -30 0 -30 0
0 140 0 140 30 0 30 0 0 -140z m100 0 l0 -140 -25 0 c-21 0 -25 5 -26 33 0 54
-1 231 0 240 1 4 12 7 26 7 l25 0 0 -140z m90 0 l0 -140 -30 0 -30 0 0 140 0
140 30 0 30 0 0 -140z m90 0 l0 -140 -30 0 -30 0 0 140 0 140 30 0 30 0 0
-140z m87 0 l2 -140 -34 0 -35 0 0 140 0 140 33 0 33 0 1 -140z m83 0 l0 -140
-30 0 -30 0 0 140 0 140 30 0 30 0 0 -140z m90 0 l0 -140 -29 0 -30 0 -3 136
c-2 75 -1 138 1 140 2 2 17 4 33 4 l28 0 0 -140z m90 0 l0 -140 -35 0 -35 0 0
140 0 140 35 0 35 0 0 -140z m80 0 l0 -140 -30 0 -30 0 0 140 0 140 30 0 30 0
0 -140z m100 0 c0 -133 -1 -140 -20 -140 -19 0 -20 7 -20 140 0 133 1 140 20
140 19 0 20 -7 20 -140z m116 130 c11 0 14 -25 14 -135 l0 -135 -35 0 -35 0 0
133 c0 74 3 137 7 141 4 3 13 4 21 1 7 -3 20 -5 28 -5z m80 0 c11 0 14 -25 14
-135 l0 -135 -30 0 -30 0 0 141 c0 125 2 140 16 135 9 -3 22 -6 30 -6z m94
-135 l0 -135 -30 0 -30 0 0 135 0 135 30 0 30 0 0 -135z m70 0 l0 -135 -25 0
-25 0 0 135 0 135 25 0 25 0 0 -135z m-2010 -210 l0 -35 -145 0 -145 0 0 35 0
35 145 0 145 0 0 -35z m110 0 c0 -31 -3 -35 -25 -35 -21 0 -25 5 -25 28 0 33
7 42 32 42 14 0 18 -8 18 -35z m727 -2 l1 -33 -334 0 -334 0 0 35 0 35 333 -2
332 -3 2 -32z m713 2 l0 -35 -330 0 -330 0 0 35 0 35 330 0 330 0 0 -35z m100
0 c0 -28 -4 -35 -20 -35 -16 0 -20 7 -20 35 0 28 4 35 20 35 16 0 20 -7 20
-35z m360 0 l0 -35 -150 0 -150 0 0 35 0 35 150 0 150 0 0 -35z m-1962 -157
c5 -7 13 -27 16 -44 l7 -32 -108 40 c-59 22 -110 42 -112 44 -2 2 39 4 91 4
64 0 99 -4 106 -12z m136 -30 c-7 -43 -11 -55 -17 -47 -8 9 6 89 14 89 5 0 6
-19 3 -42z m636 -29 l0 -70 -269 3 c-148 2 -272 5 -274 8 -3 3 -3 33 0 68 l6
62 268 0 269 0 0 -71z m614 34 c3 -21 6 -52 6 -70 l0 -31 -275 -1 -275 -1 0
70 0 70 269 0 268 0 7 -37z m115 20 c-1 -10 -5 -31 -9 -48 -7 -27 -8 -25 -9
18 0 26 4 47 9 47 6 0 9 -8 9 -17z m311 7 c-14 -4 -63 -22 -109 -39 -47 -17
-88 -31 -93 -31 -13 0 -9 55 4 68 8 8 48 12 118 11 67 0 96 -4 80 -9z m-1461
-287 c0 -87 -2 -104 -12 -90 -7 10 -38 59 -69 108 l-57 89 69 0 70 0 -1 -107z
m213 -148 c2 -140 1 -255 -2 -255 -3 1 -40 51 -82 113 l-78 111 0 143 0 143
80 0 79 0 3 -255z m408 -70 l0 -325 -154 0 -154 0 -28 38 -29 37 -3 288 -4
287 186 0 186 0 0 -325z m240 173 l0 -153 -91 -130 c-49 -71 -92 -131 -94
-134 -3 -2 -5 125 -5 282 l0 287 95 0 95 0 0 -152z m190 146 c0 -8 -132 -214
-137 -214 -1 0 -3 50 -3 110 l0 110 70 0 c39 0 70 -3 70 -6z m-1117 -211 l67
-104 0 -588 0 -588 -118 -164 c-65 -90 -138 -194 -162 -231 -67 -103 -68 -100
-45 107 8 72 30 301 50 510 51 549 104 1103 111 1155 6 39 8 42 18 27 6 -11
41 -66 79 -124z m1161 50 c11 -131 34 -378 81 -853 48 -486 55 -553 81 -783 9
-81 13 -151 10 -154 -10 -11 -27 10 -195 251 l-161 230 0 573 0 572 81 121
c45 66 85 120 89 120 4 0 10 -35 14 -77z m-954 -345 c38 -56 70 -110 70 -119
0 -15 -12 -18 -76 -21 -42 -2 -78 -1 -80 1 -9 9 -4 252 6 246 5 -3 41 -51 80
-107z m720 -18 l0 -120 -86 0 c-84 0 -86 1 -73 20 8 10 45 64 82 120 38 55 71
100 73 100 2 0 4 -54 4 -120z m-720 -162 l65 -3 3 -253 2 -253 -77 -107 -78
-106 -3 349 c-2 336 1 413 16 388 4 -7 37 -13 72 -15z m182 -75 c30 -43 65
-92 77 -110 l21 -32 -77 -110 c-43 -60 -81 -110 -85 -111 -3 0 -7 99 -7 220 0
121 4 220 8 220 4 0 33 -35 63 -77z m252 65 c-33 -54 -118 -158 -123 -151 -10
10 -95 134 -105 151 -6 9 20 12 114 12 94 0 120 -3 114 -12z m286 -349 l0
-361 -57 78 c-31 44 -74 103 -95 133 l-38 54 0 229 0 228 95 0 95 0 0 -361z
m-242 56 l-3 -86 -59 82 c-66 91 -66 80 9 186 l50 71 3 -84 c1 -46 1 -122 0
-169z m-88 -64 c38 -55 75 -103 80 -106 6 -4 10 -78 10 -186 l0 -179 -182 2
-183 3 -3 136 -3 135 58 85 c59 86 146 208 150 209 1 0 34 -45 73 -99z m245
-331 c47 -65 85 -123 85 -130 0 -7 -29 -10 -92 -8 l-93 3 -3 133 c-2 87 1 131
7 127 6 -3 49 -59 96 -125z m-567 -32 l-3 -103 -72 -1 c-49 -1 -73 2 -73 10 1
15 131 196 142 196 5 0 7 -46 6 -102z m2 -383 c0 -228 1 -235 20 -235 19 0 20
7 20 235 l0 235 185 0 185 0 0 -236 0 -235 23 3 22 3 3 233 2 232 95 0 95 0 0
-236 0 -235 23 3 c22 3 22 3 25 226 1 122 6 222 11 222 4 0 12 -10 18 -22 6
-13 57 -88 115 -168 165 -231 183 -260 167 -271 -8 -5 -343 -9 -766 -9 -719 0
-753 1 -753 18 0 17 41 80 220 336 l75 107 5 -218 c5 -210 6 -218 25 -218 19
0 20 8 23 233 l2 232 80 0 80 0 0 -235z m-597 -212 c-13 -2 -35 -2 -50 0 -16
2 -5 4 22 4 28 0 40 -2 28 -4z m1742 -2 c-19 -8 -75 -4 -84 5 -2 2 20 4 50 3
37 0 48 -3 34 -8z m-1355 -316 l0 -206 -56 63 c-100 112 -254 298 -254 307 0
39 9 41 161 41 l149 0 0 -205z m205 192 c3 -7 4 -154 3 -327 l-3 -315 -77 90
-78 90 0 238 0 237 75 0 c52 0 77 -4 80 -13z m415 -337 l0 -350 -185 0 -185 0
0 350 0 350 185 0 185 0 0 -350z m240 109 l0 -240 -81 -92 c-45 -51 -88 -99
-95 -107 -12 -12 -14 40 -14 333 l0 347 95 0 95 0 0 -241z m372 219 c2 -15 -9
-36 -33 -63 -20 -22 -90 -103 -154 -180 -64 -77 -121 -144 -126 -149 -5 -6 -9
78 -9 202 l0 212 159 0 c158 0 160 0 163 -22z m82 -178 c8 -69 17 -154 20
-190 3 -36 24 -236 46 -445 23 -209 47 -445 55 -525 19 -194 64 -601 69 -622
2 -11 -5 -19 -21 -23 -31 -7 -40 0 -172 146 -53 58 -165 180 -248 272 l-153
165 0 454 0 453 131 155 c167 197 251 292 254 288 2 -2 10 -59 19 -128z
m-1490 -100 l176 -205 0 -465 0 -465 -106 -115 c-59 -63 -177 -191 -262 -285
-125 -136 -162 -171 -186 -173 l-29 -3 7 58 c19 166 58 547 71 688 8 88 17
176 20 195 3 19 9 82 15 140 5 58 16 170 24 250 8 80 24 242 36 360 11 118 23
221 25 228 3 8 10 10 19 5 8 -4 93 -100 190 -213z m346 -400 c0 -3 -27 -5 -60
-5 l-60 0 0 73 0 73 60 -68 c33 -37 60 -70 60 -73z m690 65 l0 -65 -60 0 -60
0 55 58 c30 31 55 60 55 65 0 4 2 7 5 7 3 0 5 -29 5 -65z m-650 -343 l0 -223
-61 -67 c-34 -37 -70 -76 -80 -87 -19 -19 -19 -12 -19 297 l0 317 73 3 c40 2
75 -1 79 -7 4 -5 8 -110 8 -233z m410 228 c-1 -3 -38 -44 -83 -93 l-82 -87
-75 86 c-41 47 -76 89 -77 93 -2 3 69 6 157 6 88 1 160 -2 160 -5z m240 -305
c0 -173 -1 -315 -3 -315 -2 0 -45 47 -95 104 l-92 104 0 191 c0 233 -2 229
114 230 l76 1 0 -315z m-461 100 c13 -21 10 -27 -59 -106 -40 -46 -77 -88 -81
-93 -5 -6 -9 72 -9 177 l0 187 68 -71 c37 -39 73 -81 81 -94z m221 -12 l0
-137 -60 59 c-33 33 -59 66 -58 73 3 11 107 139 116 141 1 1 2 -61 2 -136z
m-78 -141 l77 -87 1 -122 0 -123 -185 0 -185 0 0 94 0 95 101 115 c56 64 104
116 108 115 3 0 41 -40 83 -87z m288 -324 c0 -5 -36 -8 -80 -8 l-80 0 0 93 1
92 79 -85 c44 -47 80 -88 80 -92z m-622 65 l-3 -68 -62 -3 c-35 -2 -63 0 -63
3 0 10 114 135 123 135 4 0 7 -30 5 -67z m2 -428 c0 -308 0 -315 20 -315 20 0
20 7 20 315 l0 315 185 0 185 0 2 -317 c3 -310 3 -318 23 -318 20 0 20 8 23
318 l2 317 95 0 95 0 0 -314 c0 -328 0 -326 41 -326 5 0 10 132 11 304 l3 304
60 -68 c33 -37 142 -159 243 -270 101 -111 187 -211 191 -223 5 -12 11 -32 15
-44 l7 -23 -974 0 -975 0 8 35 c6 26 58 89 206 251 110 120 219 241 244 270
25 29 48 53 52 53 4 1 9 -131 10 -291 l3 -293 23 -3 22 -3 1 308 c1 169 1 314
0 321 -1 9 20 12 79 12 l80 0 0 -315z m-775 -255 c4 -6 -18 -10 -59 -10 -37 0
-66 4 -66 10 0 6 26 10 59 10 33 0 63 -4 66 -10z m2175 0 c0 -11 -37 -20 -82
-20 -35 0 -47 8 -32 23 9 9 114 7 114 -3z m-160 -190 c0 -8 -79 -179 -176
-380 -96 -201 -180 -376 -185 -389 -12 -29 -4 -38 -108 130 l-71 116 0 276 0
277 263 2 c166 2 265 -1 269 -7 4 -5 8 -17 8 -25z m-1450 -246 c0 -185 -4
-282 -11 -297 -7 -12 -43 -73 -82 -136 l-71 -114 -48 99 c-232 475 -320 664
-324 692 l-4 32 270 0 270 0 0 -276z m210 159 l0 -117 -72 -115 c-40 -63 -76
-120 -80 -125 -4 -6 -8 98 -8 232 l0 242 80 0 80 0 0 -117z m109 40 c-28 -43
-54 -82 -58 -86 -5 -5 -9 30 -10 77 l-2 86 61 0 60 0 -51 -77z m301 22 c0 -30
-2 -55 -4 -55 -5 0 -66 98 -66 105 0 3 16 5 35 5 l35 0 0 -55z m240 -187 l0
-242 -95 150 -95 149 0 93 0 92 95 0 95 0 0 -242z m-292 99 l52 -84 0 -267 0
-266 -60 0 -60 0 0 356 c0 195 4 353 8 350 5 -3 32 -43 60 -89z m-158 -267 l0
-350 -80 0 -80 0 0 235 0 235 73 114 c39 63 75 115 80 116 4 0 7 -157 7 -350z
m-808 -66 l197 -406 -158 -256 c-86 -142 -216 -352 -287 -469 -117 -193 -154
-240 -154 -198 0 8 16 155 35 327 20 172 40 356 45 408 5 52 23 223 39 380 17
157 38 355 46 440 18 167 20 180 32 180 4 0 97 -183 205 -406z m1933 374 c9
-55 34 -267 45 -383 6 -60 22 -207 35 -325 14 -118 27 -235 29 -260 9 -83 56
-494 72 -619 8 -68 13 -126 10 -128 -18 -19 -50 30 -494 755 -62 100 -112 186
-112 191 0 5 46 103 101 218 56 114 133 273 171 353 79 164 116 230 128 230 5
0 12 -15 15 -32z m-762 -350 l87 -137 0 -324 0 -325 -44 -78 c-24 -44 -66
-124 -95 -179 l-51 -100 0 397 0 397 87 3 c74 3 88 6 91 21 3 15 -6 17 -87 17
l-91 0 0 232 c0 128 4 228 8 223 5 -6 48 -72 95 -147z m-563 -103 l1 -205 -81
0 -80 0 0 86 c0 95 -11 69 112 265 21 32 40 59 42 59 2 0 5 -92 6 -205z m797
-262 c18 -29 33 -57 33 -63 0 -6 -29 -68 -65 -138 l-65 -127 0 240 0 240 32
-50 c17 -27 46 -74 65 -102z m-1007 -95 l-1 -233 -66 131 -66 130 63 102 c35
56 65 102 67 102 2 0 3 -105 3 -232z m210 -243 c0 -195 -2 -355 -4 -355 -2 0
-38 65 -80 144 l-76 145 0 210 0 211 80 0 80 0 0 -355z m198 -162 c-2 -382 -6
-517 -15 -520 -6 -2 -40 50 -76 119 l-65 123 -2 398 -1 397 81 0 80 0 -2 -517z
m215 90 l3 -428 -56 -112 c-30 -62 -58 -113 -62 -113 -5 0 -8 243 -8 540 l0
540 60 0 60 0 3 -427z m-709 123 l86 -163 0 -327 0 -326 105 0 c98 0 105 -1
105 -20 0 -19 -7 -20 -174 -20 -145 0 -175 2 -180 15 -7 20 -42 19 -50 0 -5
-13 -42 -15 -278 -13 l-273 3 -3 33 c-3 28 13 60 91 185 52 84 130 211 174
282 44 72 130 212 191 313 62 100 112 187 112 192 0 6 2 10 4 10 3 0 43 -74
90 -164z m1337 -103 c90 -148 218 -358 286 -467 108 -175 123 -205 123 -243
l0 -43 -262 0 c-258 0 -262 0 -286 23 l-24 22 -15 -22 c-15 -23 -19 -23 -209
-23 -190 0 -194 0 -194 21 0 20 4 21 118 18 l117 -4 5 335 5 335 78 147 c42
82 77 152 77 158 0 32 33 -16 181 -257z m-1085 -354 l44 -86 0 -116 0 -117
-80 0 -80 0 0 268 0 267 36 -65 c19 -36 55 -104 80 -151z m694 -59 l0 -261
-92 3 -93 3 -3 77 -3 77 93 181 c51 99 94 180 95 180 2 0 3 -117 3 -260z
m-530 -255 c0 -4 -16 -5 -35 -3 -20 2 -35 6 -35 11 0 4 0 37 0 74 l0 68 35
-72 c19 -40 35 -75 35 -78z m290 30 c0 -28 -4 -35 -20 -35 -11 0 -20 3 -20 6
0 7 33 64 37 64 2 0 3 -16 3 -35z m-1420 -25 c0 -6 -27 -10 -61 -10 -37 0 -58
4 -54 10 3 6 31 10 61 10 30 0 54 -4 54 -10z m2640 0 c0 -6 -27 -10 -60 -10
-33 0 -60 4 -60 10 0 6 27 10 60 10 33 0 60 -4 60 -10z m-1500 -54 c0 -2 3
-12 6 -21 6 -14 0 -16 -42 -13 -37 2 -50 7 -52 21 -3 14 4 17 42 17 25 0 46
-2 46 -4z m150 -16 c-7 -13 -21 -20 -40 -20 -19 0 -33 7 -40 20 -10 19 -8 20
40 20 48 0 50 -1 40 -20z m130 0 c0 -16 -7 -20 -35 -20 -37 0 -43 8 -23 28 20
20 58 15 58 -8z m-1435 -90 c4 -6 -9 -10 -32 -9 -38 1 -38 1 -8 9 17 4 31 8
32 9 1 0 5 -3 8 -9z m2620 0 c15 -7 10 -9 -22 -9 -24 -1 -43 4 -43 9 0 12 37
12 65 0z m-1996 -26 c14 -31 45 -29 49 4 3 20 9 22 73 22 l69 0 0 -237 0 -236
-62 -86 c-34 -47 -102 -139 -149 -203 l-87 -117 -21 35 c-12 19 -21 37 -21 39
0 2 -28 52 -61 112 -66 115 -349 642 -349 649 0 2 6 4 14 4 8 0 18 9 21 20 6
19 15 20 259 20 l253 0 12 -26z m401 -79 l0 -104 -72 -95 c-40 -52 -76 -95
-80 -95 -5 -1 -8 89 -8 199 l0 200 80 0 80 0 0 -105z m150 92 c0 -15 -91 -135
-102 -136 -10 -1 -11 133 -1 142 13 13 103 8 103 -6z m260 -49 l-1 -63 -39 45
c-52 60 -52 80 0 80 l40 0 0 -62z m240 -144 c0 -175 -2 -205 -14 -195 -8 6
-50 58 -95 115 l-81 104 0 91 0 91 95 0 95 0 0 -206z m205 184 c15 -33 43 -35
51 -4 l6 26 269 0 c245 0 268 -1 262 -16 -4 -10 0 -22 9 -28 14 -10 4 -32 -72
-166 -76 -134 -135 -240 -327 -584 -21 -38 -42 -68 -48 -66 -5 1 -76 88 -157
193 l-148 191 0 238 0 238 73 0 c65 0 73 -2 82 -22z m-665 -408 l0 -360 -75 0
-75 0 0 266 0 267 54 66 c29 36 61 78 71 94 9 15 19 27 21 27 2 0 4 -162 4
-360z m200 235 l25 -31 -3 -282 -3 -282 -59 0 -60 0 0 344 c0 189 -3 353 -7
363 -6 17 54 -46 107 -112z m-1387 78 c13 -21 50 -87 82 -148 55 -104 336
-611 358 -646 12 -19 11 -20 -324 -474 -278 -377 -312 -420 -337 -423 -27 -4
-27 3 -7 159 8 63 22 184 30 269 9 85 27 252 40 370 24 209 50 450 80 735 18
173 23 195 41 195 7 0 24 -17 37 -37z m2551 10 c3 -16 15 -109 26 -208 34
-303 79 -701 100 -880 60 -509 71 -599 76 -607 4 -5 -8 -8 -26 -6 -30 3 -46
21 -186 213 -84 116 -231 313 -325 440 l-172 229 33 61 c18 33 80 143 138 245
58 102 143 253 190 335 93 165 119 205 132 205 5 0 11 -12 14 -27z m-994 -294
l90 -110 0 -490 0 -490 -30 -57 c-16 -31 -76 -138 -133 -237 l-103 -180 -115
-2 -114 -3 25 20 c19 15 41 20 88 20 35 0 62 -4 62 -10 0 -5 5 -10 10 -10 6 0
10 65 10 175 l0 175 115 0 c108 0 115 1 115 20 0 19 -7 20 -115 20 l-115 0 0
269 0 269 50 -4 c58 -5 90 8 90 35 0 24 -19 31 -78 31 -26 0 -64 3 -84 6 l-38
7 0 58 0 59 171 0 c157 0 170 1 167 18 -3 14 -16 17 -86 20 l-82 3 0 249 c0
138 2 250 5 250 2 0 45 -50 95 -111z m-564 -376 c-4 -9 -29 -13 -81 -13 l-75
0 0 143 0 142 40 48 c21 27 56 71 77 100 l38 52 3 -230 c1 -126 0 -235 -2
-242z m-206 -215 l0 -411 -130 226 c-71 125 -130 231 -130 237 0 9 250 360
257 360 2 0 3 -185 3 -412z m1063 219 l119 -159 -30 -56 c-17 -32 -78 -140
-136 -242 l-106 -185 0 414 c0 384 1 412 17 400 9 -8 70 -85 136 -172z m-663
-116 l0 -58 -68 -6 c-38 -3 -86 -3 -108 0 -21 2 -51 0 -66 -6 l-28 -10 -2
-326 -3 -326 -37 69 -38 69 0 325 c0 179 2 327 4 329 2 2 81 3 175 1 l171 -3
0 -58z m-634 -223 c37 -68 105 -187 151 -265 l83 -143 0 -225 0 -225 -495 0
c-494 0 -495 0 -495 21 0 30 8 42 158 243 75 101 225 304 332 450 107 146 195
266 196 266 1 0 32 -55 70 -122z m1638 -115 c514 -696 496 -671 496 -708 l0
-35 -495 0 -495 0 0 220 0 219 69 118 c130 223 231 404 231 413 0 29 34 -11
194 -227z m-1004 147 l0 -60 -95 0 -95 0 0 54 c0 34 5 56 13 59 6 3 49 6 95 6
l82 1 0 -60z m-5 -252 c-5 -108 -10 -145 -21 -151 -19 -11 -18 -81 1 -101 11
-11 15 -40 15 -121 l0 -106 -87 3 -88 3 -3 308 -2 307 95 0 96 0 -6 -142z
m105 -62 c1 -92 -1 -170 -4 -173 -3 -4 -6 74 -6 172 0 98 2 176 5 174 2 -3 5
-80 5 -173z m1 -343 c-1 -70 -4 -129 -6 -132 -3 -2 -5 58 -5 134 0 76 3 135 7
132 3 -4 5 -64 4 -134z m-406 57 c34 -67 35 -73 35 -180 l0 -111 -37 3 -38 3
-3 178 c-1 97 0 177 3 177 2 0 21 -31 40 -70z m762 -287 c-3 -2 -47 -2 -100
-1 l-95 3 42 72 c22 39 66 116 96 171 l55 99 3 -170 c1 -93 1 -172 -1 -174z
m-1867 107 c0 -6 -30 -10 -70 -10 -40 0 -70 4 -70 10 0 6 30 10 70 10 40 0 70
-4 70 -10z m1400 1 c0 -5 -4 -21 -10 -35 -9 -25 -13 -26 -90 -26 l-80 0 0 35
0 35 90 0 c50 0 90 -4 90 -9z m1705 0 c-6 -5 -39 -10 -75 -11 -82 -2 -82 -2
-75 10 3 6 41 10 83 10 47 0 72 -4 67 -9z m-2115 -216 c0 -31 -3 -35 -27 -35
-34 0 -69 -23 -111 -71 -28 -33 -32 -43 -32 -98 l0 -61 -307 2 -308 3 -1 100
0 100 -75 3 -75 3 -15 37 c-7 20 -15 40 -17 45 -2 4 215 7 482 7 l486 0 0 -35z
m1910 -7 l-19 -43 -73 -5 -73 -5 -3 -102 -3 -103 -339 0 -340 0 0 150 0 150
435 0 434 0 -19 -42z m-890 -113 l0 -145 -85 0 -85 0 0 94 c0 52 -3 101 -6
110 -5 13 -23 16 -95 16 -70 0 -89 3 -89 14 0 8 -3 21 -6 30 -5 14 16 16 173
19 98 1 181 4 186 5 4 1 7 -63 7 -143z m-2022 108 c28 -38 17 -43 -103 -43
-63 0 -115 2 -115 5 0 4 7 20 16 37 l16 31 86 -7 c64 -5 90 -11 100 -23z
m1580 1 l-2 -24 -222 0 c-215 0 -222 1 -217 19 7 26 16 27 245 29 l198 1 -2
-25z m1576 -6 c9 -17 16 -33 16 -35 0 -1 -52 -3 -115 -3 -63 0 -115 2 -115 5
0 2 5 15 11 29 13 27 30 32 126 35 60 1 62 0 77 -31z m-2083 -78 c17 0 29 -5
29 -12 0 -10 -26 -13 -95 -13 -52 0 -95 4 -95 8 0 15 46 27 89 22 24 -3 57 -5
72 -5z m739 -80 l0 -90 -330 0 -330 0 0 90 0 90 330 0 330 0 0 -90z m-1632 -5
l3 -85 -285 0 -286 0 0 85 0 85 283 0 282 0 3 -85z m3172 0 l0 -85 -285 0
-285 0 0 85 0 85 285 0 285 0 0 -85z m-2240 0 l0 -25 -120 0 c-92 0 -120 3
-120 13 0 30 25 37 132 37 l108 0 0 -25z m5 -76 c5 -5 -44 -9 -118 -9 -101 0
-127 3 -127 14 0 11 22 12 118 9 64 -3 121 -9 127 -14z"/>
</g>
</svg>
